Coordinates
version=1
nRows=13
nColumns=40
inDegrees=yes

Units are S.I. units (second, meters, Newtons, ...)
Angles are in degrees.

endheader
time	pelvis_tilt	pelvis_list	pelvis_rotation	pelvis_tx	pelvis_ty	pelvis_tz	hip_flexion_r	hip_adduction_r	hip_rotation_r	knee_angle_r	knee_angle_r_beta	ankle_angle_r	subtalar_angle_r	mtp_angle_r	hip_flexion_l	hip_adduction_l	hip_rotation_l	knee_angle_l	knee_angle_l_beta	ankle_angle_l	subtalar_angle_l	mtp_angle_l	lumbar_extension	lumbar_bending	lumbar_rotation	arm_flex_r	arm_add_r	arm_rot_r	elbow_flex_r	pro_sup_r	wrist_flex_r	wrist_dev_r	arm_flex_l	arm_add_l	arm_rot_l	elbow_flex_l	pro_sup_l	wrist_flex_l	wrist_dev_l
     21.94250000	     -5.38648927	     -5.60511326	     -1.90922576	      1.01623305	      0.91806482	      0.50431310	     23.87262682	      2.68555040	    -13.59332918	     22.27167375	     22.27167375	      5.60285438	     -1.23746996	     -2.27193572	     12.86771942	    -12.18640591	     -2.73518066	     51.28293738	     51.28293738	     14.64965577	    -18.51367361	      7.86238795	    -10.20932272	      8.20749996	      2.65836568	      3.77873821	    -13.78798701	     -8.56177186	     28.36401698	     46.18949288	      0.00000000	      0.00000000	     13.54729211	    -10.66430771	     -6.58026931	     78.21158160	     47.69147407	      0.00000000	      0.00000000
     21.95457143	     -5.37101721	     -5.84795961	     -1.75186848	      1.01545779	      0.91901826	      0.50634468	     23.15890574	      3.06591560	    -13.83373431	     21.85035073	     21.85035073	      5.90834785	     -1.01283388	     -2.31495470	     14.89359238	    -12.72058871	     -2.10290784	     54.47810195	     54.47810195	     13.62564248	    -18.83418960	      8.44756505	    -10.35101515	      8.40717340	      2.79337541	      5.64019822	    -14.35988219	     -8.60285173	     29.17774498	     46.17596394	      0.00000000	      0.00000000	     12.70549970	    -10.26078941	     -6.17156427	     77.26088390	     47.64418309	      0.00000000	      0.00000000
     21.96664286	     -5.41379649	     -5.91498909	     -1.58984927	      1.01447988	      0.91994380	      0.50802879	     22.49260552	      3.24172683	    -14.05962947	     21.37310660	     21.37310660	      6.13755102	     -0.67478733	     -2.56568170	     17.12536946	    -12.81657125	     -1.19410180	     57.61837834	     57.61837834	     14.51750640	    -18.91169214	     13.84868098	    -10.28981835	      8.46294873	      2.93933568	      7.38161115	    -14.95665041	     -8.30833533	     30.20158859	     46.13103927	      0.00000000	      0.00000000	     12.61742286	     -9.82862419	     -5.73738657	     73.75507372	     47.56747045	      0.00000000	      0.00000000
     21.97871429	     -5.38373918	     -6.02686474	     -1.49757830	      1.01342047	      0.92086743	      0.50980093	     21.79622239	      3.50465728	    -14.17154868	     20.97665864	     20.97665864	      6.41968709	     -0.48001097	     -2.60570911	     19.00762960	    -13.13674997	     -0.68855876	     59.91786252	     59.91786252	     13.83890126	    -19.08684322	     14.09733045	    -10.45213799	      8.49118024	      3.14811659	      9.30503329	    -15.56115605	     -8.38161100	     31.06426109	     46.11741821	      0.00000000	      0.00000000	     11.74525725	     -9.44189670	     -5.36437141	     72.79272440	     47.51999081	      0.00000000	      0.00000000
     21.99078571	     -5.44004158	     -6.07329265	     -1.33247468	      1.01215728	      0.92170221	      0.51131009	     21.12955678	      3.67590476	    -14.35541355	     20.43538433	     20.43538433	      6.59169310	     -0.17460349	     -2.86731574	     21.07863036	    -13.21648181	      0.02510621	     61.96548470	     61.96548470	     14.34786714	    -19.15168316	     17.06223907	    -10.39751968	      8.51269361	      3.23948056	     11.05212557	    -16.09417955	     -8.17918601	     32.23743823	     46.07086169	      0.00000000	      0.00000000	     11.68811400	     -9.14342892	     -4.91044168	     68.96109602	     47.43024821	      0.00000000	      0.00000000
     22.00285714	     -5.44920542	     -6.12518056	     -1.22875488	      1.01078359	      0.92252449	      0.51294230	     20.47572707	      3.88819672	    -14.40543860	     19.99219504	     19.99219504	      6.82983702	      0.00347746	     -2.89161552	     22.89702021	    -13.38706078	      0.52164826	     63.30141887	     63.30141887	     14.07484705	    -19.22402325	     17.21466045	    -10.50254091	      8.40562599	      3.30903462	     13.00888240	    -16.57122510	     -8.25329635	     33.23533254	     46.05091574	      0.00000000	      0.00000000	     10.77366446	     -8.96651235	     -4.57214256	     67.65270777	     47.37758274	      0.00000000	      0.00000000
     22.01492857	     -5.40800789	     -6.01047967	     -1.09668728	      1.00927475	      0.92350583	      0.51429825	     19.75554634	      3.90565820	    -14.43414424	     19.50909815	     19.50909815	      7.05593007	      0.18596049	     -3.04560468	     24.57855121	    -13.31658126	      0.92145355	     64.11988670	     64.11988670	     14.23580772	    -19.26670654	     18.20906805	    -10.62626183	      8.26359189	      3.26681475	     15.02023410	    -16.94005036	     -8.15193299	     34.44603020	     46.01068211	      0.00000000	      0.00000000	     10.46321839	     -8.83027180	     -4.22704733	     64.35794262	     47.30071990	      0.00000000	      0.00000000
     22.02700000	     -5.43083838	     -5.96522403	     -0.93223921	      1.00756913	      0.92430959	      0.51562894	     19.11996244	      4.00208866	    -14.45418764	     19.02215694	     19.02215694	      7.30273072	      0.30374389	     -3.12583586	     26.26429632	    -13.30867360	      1.32969101	     64.41674414	     64.41674414	     14.24073372	    -19.27616229	     18.58434327	    -10.72100855	      8.13941208	      3.25771212	     16.96264557	    -17.33091021	     -8.13108520	     35.60716979	     45.97712818	      0.00000000	      0.00000000	      9.88430088	     -8.69746838	     -3.91847016	     61.99802350	     47.23742683	      0.00000000	      0.00000000
     22.03907143	     -5.42128679	     -5.87812254	     -0.76591226	      1.00575068	      0.92512061	      0.51689292	     18.48409003	      4.04641220	    -14.47682660	     18.57640038	     18.57640038	      7.49638079	      0.36414708	     -3.16407984	     27.78177350	    -13.22088272	      1.68115930	     64.16591993	     64.16591993	     14.27960048	    -19.29008294	     18.75936354	    -10.86081934	      7.93341414	      3.22172462	     18.98484596	    -17.65576196	     -8.10798880	     36.78381050	     45.94345418	      0.00000000	      0.00000000	      9.23453566	     -8.62225490	     -3.67675697	     59.70598751	     47.17895288	      0.00000000	      0.00000000
     22.05114286	     -5.39131766	     -5.74470567	     -0.56627578	      1.00380439	      0.92594260	      0.51801265	     17.84198769	      4.03585677	    -14.46168176	     18.14039108	     18.14039108	      7.71424615	      0.37505356	     -3.23748163	     29.13654549	    -13.07114897	      1.93672507	     63.35861430	     63.35861430	     14.27761899	    -19.28462387	     18.91639736	    -11.02571043	      7.71395149	      3.19185951	     20.95125173	    -17.97497766	     -8.00180582	     38.02198567	     45.90212880	      0.00000000	      0.00000000	      8.79013212	     -8.51609308	     -3.49510646	     56.90172088	     47.11901945	      0.00000000	      0.00000000
     22.06321429	     -5.37714393	     -5.62825805	     -0.34474184	      1.00178233	      0.92664245	      0.51898186	     17.21290387	      4.03755503	    -14.44290414	     17.67995545	     17.67995545	      7.92854376	      0.36219098	     -3.30616787	     30.37170842	    -12.91119771	      2.14914671	     62.06468112	     62.06468112	     14.25272986	    -19.27033515	     18.97451318	    -11.17749049	      7.50869156	      3.18708165	     22.88571132	    -18.25285101	     -7.86765633	     39.32177762	     45.85689005	      0.00000000	      0.00000000	      8.31509355	     -8.41416051	     -3.35874211	     54.17586481	     47.06370332	      0.00000000	      0.00000000
     22.07528571	     -5.36920541	     -5.53091904	     -0.10545321	      0.99967664	      0.92733944	      0.51988334	     16.60180054	      4.05212229	    -14.46108766	     17.22715151	     17.22715151	      8.10835225	      0.32276775	     -3.37411541	     31.45087017	    -12.78383587	      2.25797029	     60.25182483	     60.25182483	     14.10443250	    -19.24145947	     19.01924556	    -11.32986001	      7.33160055	      3.10900034	     24.76866018	    -18.51088409	     -7.71244049	     40.66918430	     45.80887507	      0.00000000	      0.00000000	      7.81509543	     -8.34149716	     -3.26428166	     51.52967526	     47.01374473	      0.00000000	      0.00000000
     22.08735714	     -5.43291157	     -5.45858212	      0.14292030	      0.99753612	      0.92779548	      0.52055606	     16.08269253	      4.07361511	    -14.48799652	     16.78900334	     16.78900334	      8.20677180	      0.23624351	     -3.71656121	     32.45402846	    -12.65375169	      2.30662390	     58.01883711	     58.01883711	     13.79897761	    -19.21329731	     18.67884316	    -11.36811842	      7.22470684	      3.67195043	     25.97607278	    -19.42130672	     -7.08207151	     42.57031772	     45.71254088	      0.00000000	      0.00000000	      8.35476537	     -7.74215138	     -3.44763383	     46.93546229	     46.96250896	      0.00000000	      0.00000000
